<svg xml:space="preserve" viewBox="0 0 100 100" y="0" x="0" xmlns="http://www.w3.org/2000/svg"  style="height: 100%; width: 100%; background: rgba(241, 242, 243, 0);" width="20px" height="20px"><g class="ldl-scale" style="transform-origin: 50% 50%; transform: rotate(0deg) scale(0.8, 0.8);"><g class="ldl-ani"><g class="ldl-layer"><g class="ldl-ani" style="transform-origin: 50px 50px; animation: 1.11111s linear -0.833333s infinite normal forwards running static-15b35bc9-bec1-46f6-b184-1b982b4aa5ff;"><path fill="#333" d="M50 5C25.187 5 5 25.187 5 50s20.187 45 45 45 45-20.187 45-45S74.813 5 50 5zm0 80c-19.299 0-35-15.701-35-35s15.701-35 35-35 35 15.701 35 35-15.701 35-35 35z" style="fill: rgb(0, 0, 0);"></path></g></g><g class="ldl-layer"><g class="ldl-ani" style="transform-origin: 50px 50px; animation: 1.11111s linear -1.11111s infinite normal forwards running static-15b35bc9-bec1-46f6-b184-1b982b4aa5ff;"><path fill="#e15b64" d="M68.536 38.536L57.065 50.007l11.458 11.458a5 5 0 1 1-7.072 7.071L49.993 57.078 39.205 67.867c-.977.976-2.256 1.464-3.536 1.464s-2.559-.488-3.536-1.464a5 5 0 0 1 0-7.071l10.789-10.789-11.458-11.458a5 5 0 1 1 7.071-7.071l11.458 11.458 11.471-11.471a5.001 5.001 0 0 1 7.072 7.071z" style="fill: rgb(10, 10, 10);"></path></g></g></g></g></svg>